Run_20002
nRows=4
nColumns=164

# SIMM Motion File Header:
name Run_20002
datacolumns 164
datarows 4
otherdata 1
range 3.89000000 3.92000000
endheader
time	pelvis_tilt	pelvis_list	pelvis_rotation	pelvis_tx	pelvis_ty	pelvis_tz	hip_flexion_r	hip_adduction_r	hip_rotation_r	knee_angle_r	ankle_angle_r	hip_flexion_l	hip_adduction_l	hip_rotation_l	knee_angle_l	ankle_angle_l	lumbar_extension	lumbar_bending	lumbar_rotation	arm_flex_r	arm_add_r	arm_rot_r	elbow_flex_r	pro_sup_r	arm_flex_l	arm_add_l	arm_rot_l	elbow_flex_l	pro_sup_l	subtalar_angle_r	mtp_angle_r	subtalar_angle_l	mtp_angle_l	wrist_flex_r	wrist_dev_r	wrist_flex_l	wrist_dev_l	LPSI_tx	LPSI_ty	LPSI_tz	RPSI_tx	RPSI_ty	RPSI_tz	RTH1_tx	RTH1_ty	RTH1_tz	RTH2_tx	RTH2_ty	RTH2_tz	RTH3_tx	RTH3_ty	RTH3_tz	LTH1_tx	LTH1_ty	LTH1_tz	LTH2_tx	LTH2_ty	LTH2_tz	LTH3_tx	LTH3_ty	LTH3_tz	RTB1_tx	RTB1_ty	RTB1_tz	RTB2_tx	RTB2_ty	RTB2_tz	RTB3_tx	RTB3_ty	RTB3_tz	LTB1_tx	LTB1_ty	LTB1_tz	LTB2_tx	LTB2_ty	LTB2_tz	LTB3_tx	LTB3_ty	LTB3_tz	RCAL_tx	RCAL_ty	RCAL_tz	RTOE_tx	RTOE_ty	RTOE_tz	RMT5_tx	RMT5_ty	RMT5_tz	LCAL_tx	LCAL_ty	LCAL_tz	LTOE_tx	LTOE_ty	LTOE_tz	LMT5_tx	LMT5_ty	LMT5_tz	LACR_tx	LACR_ty	LACR_tz	RACR_tx	RACR_ty	RACR_tz	CLAV_tx	CLAV_ty	CLAV_tz	C7_tx	C7_ty	C7_tz	RUA1_tx	RUA1_ty	RUA1_tz	RUA2_tx	RUA2_ty	RUA2_tz	RUA3_tx	RUA3_ty	RUA3_tz	RLEL_tx	RLEL_ty	RLEL_tz	RMEL_tx	RMEL_ty	RMEL_tz	LUA1_tx	LUA1_ty	LUA1_tz	LUA2_tx	LUA2_ty	LUA2_tz	LUA3_tx	LUA3_ty	LUA3_tz	LLEL_tx	LLEL_ty	LLEL_tz	LMEL_tx	LMEL_ty	LMEL_tz	RFAsuperior_tx	RFAsuperior_ty	RFAsuperior_tz	RFAradius_tx	RFAradius_ty	RFAradius_tz	RFAulna_tx	RFAulna_ty	RFAulna_tz	LFAsuperior_tx	LFAsuperior_ty	LFAsuperior_tz	LFAradius_tx	LFAradius_ty	LFAradius_tz	LFAulna_tx	LFAulna_ty	LFAulna_tz	RASI_tx	RASI_ty	RASI_tz	LASI_tx	LASI_ty	LASI_tz
      3.89000000	     -3.43961197	      1.74641416	      0.75579170	      0.76183156	      1.00444475	     -0.44253008	      4.80221671	     -0.67512506	     -3.86640641	    -32.95425898	      9.04402135	     31.82581648	     -0.34273170	     -4.69942692	    -78.13078832	     -4.29495110	     -6.96601819	      2.87755905	      2.89172505	     -8.58773257	    -18.94190193	      4.93182832	    107.02262443	     82.02633534	    -28.98711783	    -43.32237199	     26.44824811	    107.27265482	     67.42530929	      0.00000000	      0.00000000	      0.00000000	      0.00000000	      0.00000000	      0.00000000	      0.00000000	      0.00000000	      0.58081828	      1.07969744	     -0.48473120	      0.58569694	      1.07565485	     -0.40100513	      0.69384305	      0.86615614	     -0.25879109	      0.74792133	      0.72818284	     -0.26876333	      0.66718752	      0.62458751	     -0.28593883	      0.72539702	      0.89620109	     -0.63665949	      0.83595700	      0.81494351	     -0.61921389	      0.81028081	      0.66406961	     -0.62236605	      0.66501017	      0.37153453	     -0.34028769	      0.57489645	      0.30469743	     -0.29458576	      0.55015914	      0.20727090	     -0.35548890	      0.82775583	      0.45454236	     -0.56357838	      0.72999005	      0.43793878	     -0.62637325	      0.66840064	      0.32285381	     -0.54756168	      0.37122301	      0.13142032	     -0.38131413	      0.59383367	      0.06598229	     -0.35696817	      0.54902007	      0.04964367	     -0.27331489	      0.47945075	      0.31448889	     -0.52630751	      0.62906651	      0.13749424	     -0.54198968	      0.58012637	      0.14130652	     -0.61717551	      0.74861629	      1.54345829	     -0.58521730	      0.74042857	      1.50003113	     -0.24799516	      0.82191206	      1.47354345	     -0.39552859	      0.68219584	      1.55507403	     -0.42771199	      0.69334724	      1.38242385	     -0.16997177	      0.62078913	      1.30552730	     -0.18460020	      0.66917790	      1.26559989	     -0.14150751	      0.66360136	      1.17155937	     -0.12243458	      0.62219684	      1.15154140	     -0.19290032	      0.67765980	      1.48514868	     -0.69270586	      0.59318660	      1.43378828	     -0.69775728	      0.62648878	      1.40779730	     -0.76803451	      0.60170505	      1.33559672	     -0.82045355	      0.53087139	      1.32321885	     -0.78412114	      0.73556523	      1.14187996	     -0.14764672	      0.90267064	      1.18311529	     -0.26264438	      0.89317023	      1.11266740	     -0.24951415	      0.65394858	      1.22958303	     -0.77027496	      0.72822268	      1.16970832	     -0.64546917	      0.68322366	      1.12599293	     -0.67271421	      0.76942932	      0.99081008	     -0.31210147	      0.76661329	      1.00919569	     -0.57379400
      3.90000000	     -3.52714417	      2.68231430	      0.86193053	      0.76402472	      1.01111732	     -0.44408066	      2.97083115	     -1.87180581	     -4.01536334	    -31.59913258	      6.36777854	     32.04876003	      0.96977420	     -4.96392619	    -74.64053985	     -4.32886736	     -6.62914090	      1.78904606	      3.51266571	     -8.62382037	    -18.46660698	      4.45150386	    108.54061342	     82.56578362	    -31.02143651	    -44.08917421	     26.02754048	    108.30818608	     67.08129905	      0.00000000	      0.00000000	      0.00000000	      0.00000000	      0.00000000	      0.00000000	      0.00000000	      0.00000000	      0.58269785	      1.08633483	     -0.48517861	      0.58845809	      1.08127620	     -0.40187687	      0.69338049	      0.87112604	     -0.26064765	      0.74330905	      0.73236401	     -0.27105006	      0.65909160	      0.63074571	     -0.28754341	      0.72804765	      0.90490293	     -0.63795976	      0.83904135	      0.82427797	     -0.61884954	      0.81408452	      0.67268760	     -0.62265334	      0.65162883	      0.37732207	     -0.34056761	      0.56137597	      0.31178903	     -0.29412272	      0.53623040	      0.21370631	     -0.35405661	      0.83711459	      0.46051006	     -0.56357164	      0.74069369	      0.43769779	     -0.62648692	      0.68621791	      0.31916779	     -0.54837581	      0.35685496	      0.14159282	     -0.37961993	      0.57398980	      0.06547522	     -0.35421841	      0.52978373	      0.05024157	     -0.27300491	      0.49815990	      0.29881312	     -0.52735955	      0.65906148	      0.13197137	     -0.54127797	      0.61024160	      0.13205781	     -0.61638356	      0.74704788	      1.55141642	     -0.58629888	      0.74301944	      1.50769819	     -0.24980455	      0.82256680	      1.48164353	     -0.39835753	      0.68241902	      1.56179965	     -0.42871667	      0.69754851	      1.38967028	     -0.17139774	      0.62519490	      1.31250053	     -0.18587528	      0.67438092	      1.27248645	     -0.14351837	      0.66944022	      1.17822583	     -0.12512782	      0.62803735	      1.15825681	     -0.19568979	      0.67426672	      1.49548681	     -0.69296933	      0.58868495	      1.44659634	     -0.69769717	      0.62066449	      1.41968674	     -0.76829688	      0.59276946	      1.34850500	     -0.82074582	      0.52254523	      1.33825761	     -0.78401774	      0.74167555	      1.15076936	     -0.15134359	      0.90665004	      1.19830117	     -0.26705065	      0.89971545	      1.12763062	     -0.25432269	      0.64384061	      1.24185617	     -0.77155115	      0.71913244	      1.18075118	     -0.64790979	      0.67299680	      1.13777958	     -0.67439167	      0.77142770	      0.99523256	     -0.31336825	      0.76828635	      1.01733140	     -0.57569982
      3.91000000	     -3.48547935	      3.52370671	      1.01383473	      0.76637151	      1.01835470	     -0.44570468	      1.05617139	     -2.96266402	     -4.31116660	    -30.24151904	      3.31102651	     31.91133951	      2.15333608	     -5.14335361	    -70.74189150	     -4.47234410	     -6.45547615	      0.78525380	      4.01664063	     -8.71941717	    -17.98284978	      4.02319813	    109.96315186	     82.48823431	    -33.09309190	    -44.67782853	     25.37443228	    109.31898077	     66.65900769	      0.00000000	      0.00000000	      0.00000000	      0.00000000	      0.00000000	      0.00000000	      0.00000000	      0.00000000	      0.58460924	      1.09334215	     -0.48576698	      0.59098307	      1.08685076	     -0.40275280	      0.69360625	      0.87688039	     -0.26235429	      0.73940036	      0.73713670	     -0.27330985	      0.65162584	      0.63766991	     -0.28889456	      0.73066636	      0.91382564	     -0.63934140	      0.84164272	      0.83339539	     -0.61864529	      0.81685409	      0.68116011	     -0.62293429	      0.63913745	      0.38404910	     -0.34074938	      0.54875326	      0.31964316	     -0.29352081	      0.52349786	      0.22082300	     -0.35247727	      0.84537771	      0.46614319	     -0.56392672	      0.75064834	      0.43748245	     -0.62674697	      0.70452971	      0.31539791	     -0.55016558	      0.34385519	      0.15271992	     -0.37802295	      0.55496618	      0.06516633	     -0.35210090	      0.51075369	      0.05113493	     -0.27262757	      0.51796804	      0.28241413	     -0.52804847	      0.68965690	      0.12675166	     -0.54120006	      0.64091305	      0.12305091	     -0.61617228	      0.74574250	      1.55957989	     -0.58759145	      0.74573732	      1.51568401	     -0.25183825	      0.82319547	      1.49013846	     -0.40127540	      0.68274619	      1.56894848	     -0.42994173	      0.70174124	      1.39740913	     -0.17293561	      0.62908268	      1.32016789	     -0.18785341	      0.67856855	      1.28007728	     -0.14580525	      0.67442412	      1.18560878	     -0.12781735	      0.63324383	      1.16557177	     -0.19852949	      0.67130177	      1.50579907	     -0.69336604	      0.58473796	      1.45944192	     -0.69745811	      0.61517894	      1.43147615	     -0.76837735	      0.58426739	      1.36124260	     -0.82061833	      0.51457733	      1.35273263	     -0.78307884	      0.74725359	      1.15998564	     -0.15539222	      0.91004440	      1.21303907	     -0.27087265	      0.90496730	      1.14225026	     -0.25921749	      0.63439841	      1.25404094	     -0.77249853	      0.71103351	      1.19189859	     -0.65010329	      0.66369195	      1.14967509	     -0.67560633	      0.77381285	      1.00056878	     -0.31513687	      0.77014254	      1.02558802	     -0.57735356
      3.92000000	     -3.44002924	      4.18923687	      1.17636825	      0.76882158	      1.02573945	     -0.44722002	     -0.77588329	     -3.80124699	     -4.57866855	    -28.92573363	     -0.11061868	     31.56473275	      3.08196066	     -5.28572045	    -66.51954596	     -4.70545730	     -6.29068417	     -0.04991374	      4.44525118	     -8.89342723	    -17.52023557	      3.66049122	    111.26926771	     82.08556955	    -35.18529915	    -45.06481086	     24.49693605	    110.26676445	     66.12236614	      0.00000000	      0.00000000	      0.00000000	      0.00000000	      0.00000000	      0.00000000	      0.00000000	      0.00000000	      0.58658735	      1.10059341	     -0.48648978	      0.59338468	      1.09268396	     -0.40358313	      0.69457716	      0.88289289	     -0.26420378	      0.73607598	      0.74225416	     -0.27556962	      0.64485181	      0.64520749	     -0.28999869	      0.73319143	      0.92267817	     -0.64078860	      0.84376728	      0.84200187	     -0.61871291	      0.81856754	      0.68921238	     -0.62328628	      0.62763566	      0.39154230	     -0.34088647	      0.53705999	      0.32802897	     -0.29283415	      0.51205705	      0.22833241	     -0.35076314	      0.85282894	      0.47139739	     -0.56485904	      0.75982606	      0.43715911	     -0.62718693	      0.72300253	      0.31151906	     -0.55224563	      0.33236229	      0.16470653	     -0.37654135	      0.53679498	      0.06507165	     -0.35190844	      0.49189767	      0.05227818	     -0.27233898	      0.53871520	      0.26549971	     -0.52815852	      0.72050960	      0.12197840	     -0.54183525	      0.67183901	      0.11444634	     -0.61663223	      0.74467845	      1.56784511	     -0.58901839	      0.74848554	      1.52380803	     -0.25412104	      0.82383961	      1.49872895	     -0.40431309	      0.68318537	      1.57631814	     -0.43137573	      0.70572483	      1.40535714	     -0.17468253	      0.63245523	      1.32830539	     -0.19020206	      0.68192181	      1.28820243	     -0.14810259	      0.67863821	      1.19349182	     -0.13043511	      0.63765089	      1.17331205	     -0.20129251	      0.66865047	      1.51600562	     -0.69382995	      0.58128340	      1.47200027	     -0.69701134	      0.60992256	      1.44304012	     -0.76824991	      0.57627708	      1.37358981	     -0.82005753	      0.50709266	      1.36641648	     -0.78132244	      0.75226342	      1.16925180	     -0.15938855	      0.91288109	      1.22713064	     -0.27429921	      0.90904087	      1.15629356	     -0.26397163	      0.62572944	      1.26593574	     -0.77312879	      0.70404853	      1.20287280	     -0.65218201	      0.65544811	      1.16137362	     -0.67641616	      0.77647231	      1.00660362	     -0.31725022	      0.77200175	      1.03340216	     -0.57833527
